<?xml version="1.0" encoding="UTF-8"?>
<svg id="Layer_1" data-name="Layer 1" xmlns="http://www.w3.org/2000/svg" viewBox="0 0 297.76 207.43">
  <defs>
    <style>
      .cls-1 {
        fill: #231f20;
        stroke-width: 0px;
      }
    </style>
  </defs>
  <path class="cls-1" d="m135.12,22.57c2.35-6.09-1.2-12.6-6.17-16.12-5.39-3.82-12.58-4.94-18.98-5.75-14.2-1.8-28.68.07-42.47,3.63C44.77,10.18,21.58,20.84,7.47,40.36,3.81,45.41.19,51.37,0,57.78c-.16,5.7,2.85,10.87,7.13,14.45s9.53,5.96,14.92,7.52c6.69,1.94,13.6,3.05,20.52,3.75,13.99,1.42,28.08,1.06,42.08,2.33,3.38.31,6.75.71,10.1,1.27,1.4.23,2.83.43,4.19.84.84.25,2.06.78,2.43,1.24.06.07.27.67.22.39-.06-.33-.04.18,0,.14-.22.27-.33.53-.66.78-1.14.87-2.7,1.39-4.01,1.94-3.08,1.31-6.22,2.47-9.4,3.5-12.98,4.23-26.63,6.22-40.28,5.85-2.94-.08-6.09,0-8.88-.83-.9-.27-1.81-.64-2.34-1.3-.03-.04-.24-.43-.25-.63-.01-.12.06-.51.23-.81.51-.91,1.53-1.5,2.4-2.01,1.51-.86,3.11-1.57,4.68-2.31,3.32-1.57,6.67-3.08,10.05-4.53,3.18-1.37,6.38-2.66,9.61-3.92l-2.82-3.67c-1.58,3.03-3.17,6.06-4.75,9.09l4.32,2.52c1.07-2.52,2.14-5.04,3.21-7.57h-4.32c1.66,2.51,3.88,4.25,6.65,5.38,1.25.51,2.75-.57,3.08-1.75,4.87-17.6,6.57-36.06,4.92-54.25-.28-3.16-4.94-3.27-5,0-.15,8.58.25,17.17,1.23,25.7.5,4.32,1.13,8.63,1.9,12.92.63,3.49,1.33,7,2.54,10.35,1.37,3.77,3.32,7.31,6.29,10.06,1.23,1.14,3.89.88,4.18-1.1.37-2.57.75-5.14,1.12-7.71.16-1.12-.11-2.21-1.15-2.82-.9-.53-2.32-.45-3.03.39-2.22,2.62-.13,5.48,2.86,5.87,2.7.35,5.24-1.57,7.14-3.28,3.93-3.53,6.21-8.88,6.01-14.15h-5c.47,3.56.95,7.12,1.42,10.69.2,1.47,1,2.32,2.5,2.5,3.38.41,5.48-2.85,6.51-5.59,1.3-3.43,2.31-7.01,3.3-10.54,2.04-7.27,3.62-14.65,4.76-22.11l-4.91-.66c.23,12.35.51,25.42,6.09,36.73,2.36,4.78,6.4,9.42,11.99,10.06,4.6.52,9.8-2.06,11.21-6.66,1.99-6.49-4.33-11.15-9.56-13.19l-.66,4.91c30.63-.75,59.97-10.32,89.68-16.77,8.38-1.82,16.82-3.4,25.34-4.43,1.34-.16,2.5-1.03,2.5-2.5,0-1.23-1.15-2.66-2.5-2.5-30.36,3.67-59.41,13.83-89.54,18.73-8.43,1.37-16.94,2.26-25.48,2.47-2.96.07-3.21,3.92-.66,4.91,2.74,1.07,7.12,3.72,6.06,7.04-.8,2.52-4.64,3.64-7.22,2.73-3.77-1.34-6.08-5.36-7.55-8.84-1.98-4.67-3.12-9.76-3.74-14.79-.73-5.94-.86-11.92-.97-17.9-.02-1.23-.93-2.31-2.17-2.46-1.11-.13-2.55.55-2.74,1.79-1.02,6.67-2.39,13.29-4.13,19.81-.86,3.22-1.81,6.42-2.84,9.59-.42,1.29-.76,2.67-1.39,3.88-.21.4-.43.79-.75,1.12s-.21.21-.65.16l2.5,2.5c-.47-3.56-.95-7.12-1.42-10.69-.18-1.34-1.02-2.5-2.5-2.5-1.32,0-2.55,1.14-2.5,2.5.11,3.08-.81,6.04-2.63,8.53-.81,1.12-1.85,2.15-2.99,2.94-.51.35-1.15.82-1.72,1.03.29-.1-.27.16-.11.02-.31-.1-.37-.11-.18-.03.23.2.4.44.52.72v1.33l-.37.55-4.18-2.43c-.37,2.57-.75,5.14-1.12,7.71l4.18-1.1c-4.78-4.43-6.22-11.09-7.37-17.25-1.49-7.98-2.44-16.05-2.88-24.16-.25-4.69-.33-9.39-.25-14.08h-5c1.61,17.78.02,35.71-4.75,52.92l3.08-1.75c-1.49-.61-2.78-1.75-3.66-3.08s-3.53-1.86-4.32,0c-1.07,2.52-2.14,5.04-3.21,7.57-.53,1.24-.37,2.68.9,3.42,1.13.66,2.79.3,3.42-.9,1.58-3.03,3.17-6.06,4.75-9.09.91-1.74-.65-4.52-2.82-3.67-6.9,2.68-13.71,5.59-20.41,8.75-2.78,1.31-5.97,2.5-8.13,4.77s-2.82,5.45-1.11,8.09c1.48,2.3,4.29,3.45,6.89,3.91,3.18.56,6.51.6,9.74.66,6.97.12,13.93-.38,20.82-1.42s13.69-2.66,20.3-4.85c3.37-1.12,6.68-2.39,9.94-3.79,2.73-1.17,6.14-2.5,6.96-5.71.76-2.95-1.05-5.53-3.58-6.88-2.69-1.43-5.83-1.76-8.8-2.21-7.09-1.07-14.24-1.57-21.4-1.89-13.98-.61-28.11-.52-41.88-3.33-5.82-1.19-11.69-2.73-16.83-5.79-4.13-2.47-8.12-6.16-8.83-11.16-.85-5.99,3.16-11.94,6.47-16.58s7.21-8.64,11.49-12.26c8.93-7.54,19.57-13.01,30.48-17.04,12.53-4.63,25.83-7.9,39.19-8.71,7.07-.43,14.22-.16,21.19,1.15,5.66,1.06,12.69,2.58,15.75,8.04,1.21,2.16,1.53,4.54.63,6.87-.49,1.26.54,2.74,1.75,3.08,1.41.39,2.59-.48,3.08-1.75h0Z"/>
  <path class="cls-1" d="m87.93,63.65c3.22,0,3.22-5,0-5s-3.22,5,0,5h0Z"/>
  <g>
    <path class="cls-1" d="m116.5,95.42c-3.55-.71-7.22.52-9.65,3.22s-3.48,6.33-3.59,9.92c-.23,7.14,3.12,13.77,7.48,19.2,8.73,10.89,22.93,16.89,29.03,29.95,2.81,6.02,2.34,12.73-.75,18.54-3.25,6.11-8.64,10.61-14.42,14.23-6.47,4.05-13.42,7.45-20.51,10.25-.88.35-1.76.68-2.64,1.01-.44.16-.88.34-1.33.49-.53.18-1.3.08-.25.37.03,0,.31.3.26.33-.04.02-.07-.43-.07-.46-.02-.61.12-1.06.34-1.71,1.2-3.54,2.88-6.96,4.6-10.27,3.46-6.68,7.51-13.04,11.43-19.46,4.1-6.73,8.11-13.51,12.02-20.35,7.74-13.54,15.08-27.31,21.9-41.34,6.82-14.03,13.53-28.31,18.4-43.15,2.37-7.22,4.19-14.61,5.19-22.15.44-3.33,1.4-7.38-.14-10.53-.68-1.39-1.98-2.52-3.59-2.57-.86-.03-1.86.28-2.48.9-.86.86-.92,2.4-1.15,3.53-3.38,16.05-6.76,32.09-10.14,48.14-3.38,16.06-7.27,32.12-9.38,48.4-.5,3.86-.87,7.74-1.07,11.63-.13,2.54,3.44,3.32,4.66,1.26,3.21-5.41,5.64-11.28,7.2-17.37h-4.82c.68,2.59,1.37,5.18,2.05,7.76.58,2.19,1.1,4.75,3.19,6.04.98.6,2.14.73,3.22.37,1.32-.43,2.07-1.56,2.71-2.71,1.34-2.39,2.66-4.79,3.99-7.19l-4.57-.6c.47,1.28.94,2.56,1.42,3.84.56,1.51,2.17,2.35,3.67,1.49,7.59-4.31,10-13.33,11.48-21.33,2.09-11.28,4.1-22.57,6.15-33.86,1.16-6.37,2.32-12.75,3.47-19.12l-4.91-.66c-1.2,21.91-2.4,43.82-3.6,65.73-.28,5.11-1.46,11.45,1.79,15.89.6.82,1.42,1.35,2.49,1.19.88-.13,1.94-.82,2.08-1.79.79-5.53,2.49-10.85,5.14-15.76l-4.66-1.26c.12,2.43,1.98,3.97,4.31,4.22,1.04.11,2.01-.11,2.99-.44.68-.23,1.36-.6,2.01-.44.22.05.71.44,1.05.76.56.52,1.07,1.08,1.64,1.6,1.34,1.21,2.91,2.15,4.77,2.04,1.12-.07,2.1-.73,2.41-1.84,1.72-6.04,2.48-12.35,2.21-18.62-.14-3.21-5.14-3.22-5,0,.25,5.87-.42,11.65-2.03,17.29l2.41-1.84c-.17.02-.35.02-.52,0,.21.02.22,0,.05-.03-.16-.05-.16-.05.02,0-.11-.06-.23-.13-.33-.2-.12-.09-.73-.62-1.06-.95-.91-.9-1.83-1.85-2.96-2.49-1.5-.85-3.2-.97-4.85-.51-.77.22-1.51.53-2.29.72.31-.08-.35.09-.13-.05.13.11.07.08-.19-.09.31.2.47.48.5.85-.11-2.36-3.42-3.55-4.66-1.26-2.85,5.28-4.79,11.01-5.64,16.96l4.57-.6c-1.17-1.61-1.45-3.42-1.47-5.37-.02-2.5.21-5.01.34-7.5.29-5.37.59-10.75.88-16.12.58-10.67,1.17-21.33,1.75-32,.33-6.04.66-12.07.99-18.11.15-2.77-4.4-3.46-4.91-.66-1.99,10.95-3.98,21.9-5.97,32.85-.99,5.48-1.99,10.95-2.98,16.43-.77,4.21-1.45,8.48-2.84,12.54-1.31,3.83-3.4,7.46-7.01,9.51l3.67,1.49c-.47-1.28-.94-2.56-1.42-3.84-.71-1.91-3.45-2.61-4.57-.6-.94,1.69-1.88,3.38-2.82,5.08-.43.77-1.19,1.69-1.41,2.54-.32.39-.25.45.22.18.4-.25.8-.2,1.2.15-.05.12-.42-.6-.38-.52-.75-1.39-.95-3.34-1.35-4.87-.5-1.88-.99-3.76-1.49-5.65-.62-2.37-4.21-2.39-4.82,0-1.46,5.71-3.69,11.11-6.7,16.18l4.66,1.26c.74-14.26,3.85-28.24,6.79-42.17s6.01-28.53,9.01-42.79c1.71-8.1,3.41-16.21,5.12-24.31l-1.15,1.49c-2.33,1.02-.1-.48-1.53-.19-.07.01.14.3.12.14.05.37.24.76.26,1.01.11,1.33-.16,2.8-.29,4.12-.28,2.83-.72,5.64-1.26,8.43-1.13,5.81-2.74,11.52-4.64,17.13-3.8,11.21-8.7,22.04-13.72,32.75-10.17,21.68-21.62,42.75-33.92,63.3-6,10.03-12.65,19.8-17.5,30.47-1.61,3.53-5.92,11.19-.93,14.02,1.37.78,2.92.56,4.33.05,1.48-.53,2.95-1.1,4.41-1.68,2.83-1.13,5.63-2.34,8.38-3.65,10.08-4.77,20.73-10.58,27.15-20.01,3.03-4.44,5-9.76,5.08-15.17s-1.75-10.38-4.52-14.78c-5.97-9.48-15.7-15.22-23.62-22.83-3.63-3.49-6.99-7.56-8.82-12.3-1.63-4.23-2.55-10.01.32-13.95,1.14-1.56,3.16-2.75,5.13-2.36,1.32.26,2.7-.38,3.08-1.75.34-1.23-.42-2.81-1.75-3.08h0Z"/>
    <path class="cls-1" d="m205.31,104.46c3.22,0,3.22-5,0-5s-3.22,5,0,5h0Z"/>
    <path class="cls-1" d="m219.99,117.13c-2.8,3.35-3.85,7.85-2.42,12.04.56,1.63,2.88,2.64,4.18,1.1,1.44-1.7,2.59-3.52,3.44-5.59.36-.88.67-1.78.89-2.71.15-.61.56-1.53.61-2.04.03-.33-.02.1-.23.17.39-.13-.73.2-.7.1-.01.05.96.69,1.1.79.81.6,1.63,1.2,2.52,1.68,1.91,1.02,4.01,1.55,6.16,1.12,1.78-.36,3.56-1.48,4.46-3.09.23-.4.42-.86.55-1.31.06-.22.35-1.29.19-1.39-.07-.05-1.2.4-.64.61.15.06.41,0,.57.03.4.06.82.2,1.21.33,1.77.6,3.33,1.83,4.86,2.87,1.74,1.18,3.53,2.17,5.48,2.97,4.58,1.87,9.62,2.23,14.46,1.34,1.33-.24,2.08-1.86,1.75-3.08-.38-1.4-1.74-1.99-3.08-1.75-3.93.72-8.12.23-11.8-1.34s-6.82-4.9-10.9-6c-2.17-.59-5-.66-6.3,1.55-.45.77-.32,1.89-.61,2.52-.2.43-.58.65-1.07.8-1.5.48-3.12-.62-4.33-1.46-1.85-1.29-3.82-3-6.19-1.73-1.97,1.05-2.46,3.18-2.96,5.18-.54,2.16-1.54,4.19-2.99,5.89l4.18,1.1c-.83-2.42-.55-5.16,1.13-7.17.86-1.04,1.01-2.52,0-3.54-.89-.89-2.67-1.04-3.54,0h0Z"/>
    <path class="cls-1" d="m295.34,126.43c3.22,0,3.22-5,0-5s-3.22,5,0,5h0Z"/>
  </g>
</svg>